<svg width="15" height="25" viewBox="0 0 15 25" fill="none" xmlns="http://www.w3.org/2000/svg">
<path d="M0.54898 24.3913C0.197472 24.0397 5.06639e-06 23.5629 5.06639e-06 23.0657C5.06639e-06 22.5685 0.197472 22.0917 0.54898 21.7401L9.83023 12.4588L0.54898 3.17758C0.207434 2.82395 0.0184442 2.35032 0.0227162 1.8587C0.0269883 1.36708 0.22418 0.89681 0.57182 0.54917C0.91946 0.20153 1.38973 0.00434007 1.88135 6.80326e-05C2.37297 -0.004204 2.8466 0.184785 3.20023 0.526332L13.8071 11.1332C14.1586 11.4848 14.3561 11.9616 14.3561 12.4588C14.3561 12.956 14.1586 13.4328 13.8071 13.7845L3.20023 24.3913C2.84861 24.7428 2.37179 24.9403 1.8746 24.9403C1.37742 24.9403 0.900594 24.7428 0.54898 24.3913V24.3913Z" fill="#F2785C" fill-opacity="0.5"/>
</svg>
